<mxfile host="app.diagrams.net" modified="2023-05-06T07:49:38.190Z" agent="Mozilla/5.0 (Windows NT 10.0; Win64; x64) AppleWebKit/537.36 (KHTML, like Gecko) Chrome/113.0.0.0 Safari/537.36" version="21.2.9" etag="pU19TeKz4udY3Ec6R0Jj" type="github">
  <diagram name="Page-1" id="w4dTg-SHapWAuptZpYWk">
    <mxGraphModel>
      <root>
        <mxCell id="0" />
        <mxCell id="1" parent="0" />
      </root>
    </mxGraphModel>
  </diagram>
</mxfile>
